<?xml version="1.0" encoding="utf-8"?>
<!-- Generator: Adobe Illustrator 19.2.0, SVG Export Plug-In . SVG Version: 6.00 Build 0)  -->
<svg version="1.1" id="Layer_1" xmlns="http://www.w3.org/2000/svg" xmlns:xlink="http://www.w3.org/1999/xlink" x="0px" y="0px"
	 viewBox="0 0 50 60" style="enable-background:new 0 0 50 60;" xml:space="preserve">
<style type="text/css">
	.st0{fill:#F0F7F7;}
</style>
<g>
	<circle class="st0" cx="35" cy="27" r="2"/>
	<circle class="st0" cx="23" cy="27" r="2"/>
	<path class="st0" d="M41,11h8L39,1v8C39,10.1,39.9,11,41,11z"/>
	<path class="st0" d="M41,12c-1.7,0-3-1.3-3-3V0H3C1.3,0,0,1.3,0,3v54c0,1.7,1.3,3,3,3h44c1.7,0,3-1.3,3-3V12H41z M35,23
		c2.2,0,4,1.8,4,4s-1.8,4-4,4s-4-1.8-4-4S32.8,23,35,23z M23,23c2.2,0,4,1.8,4,4s-1.8,4-4,4s-4-1.8-4-4S20.8,23,23,23z M15.3,41.6
		l-5.7,5C9,47.1,8,46.7,8,45.8V32.2c0-0.9,1-1.3,1.7-0.8l5.7,5c0.4,0.4,0.7,0.9,0.7,1.5v2.2C16,40.7,15.8,41.2,15.3,41.6z M41,43
		c0,1.7-1.3,3-3,3H20c-1.7,0-3-1.3-3-3v-7.9c0-1.7,1.3-3.1,3-3.1h18c1.7,0,3,1.3,3,3V43z"/>
</g>
</svg>
