<svg xmlns="http://www.w3.org/2000/svg" width="42" height="36" viewBox="0 0 42 36">
  <defs>
    <style>
      .cls-1 {
        fill: #d4d8d8;
        fill-rule: evenodd;
      }
    </style>
  </defs>
  <path id="identity_icon" class="cls-1" d="M906,9938h10a2,2,0,0,1,2,2v14a2,2,0,0,1-2,2H906a2,2,0,0,1-2-2v-14A2,2,0,0,1,906,9938Zm5,3a3.542,3.542,0,1,1-3,3.5A3.281,3.281,0,0,1,911,9941Zm0,8c2.209,0,5,1.11,5,3v2H906v-2C906,9950.11,908.791,9949,911,9949Zm12-8h16a1,1,0,0,1,0,2H923A1,1,0,0,1,923,9941Zm0,5h13a1,1,0,0,1,0,2H923A1,1,0,0,1,923,9946Zm0,5h16a1,1,0,0,1,0,2H923A1,1,0,0,1,923,9951Zm-18,9h12a1,1,0,0,1,0,2H905A1,1,0,0,1,905,9960Zm17,0h23a1,1,0,0,1,0,2H922A1,1,0,0,1,922,9960Zm-17,4h15a1,1,0,0,1,0,2H905A1,1,0,0,1,905,9964Zm20,0h20a1,1,0,0,1,0,2H925A1,1,0,0,1,925,9964Zm-20,4h12a1,1,0,0,1,0,2H905A1,1,0,0,1,905,9968Zm17,0h23a1,1,0,0,1,0,2H922A1,1,0,0,1,922,9968Zm-17,4h15a1,1,0,0,1,0,2H905A1,1,0,0,1,905,9972Zm20,0h20a1,1,0,0,1,0,2H925A1,1,0,0,1,925,9972Z" transform="translate(-904 -9938)"/>
</svg>
