<svg id="Layer_1" data-name="Layer 1" xmlns="http://www.w3.org/2000/svg" viewBox="0 0 18 23">
  <defs>
    <style>
      .cls-1 {
        fill: #2b98d9;
      }
    </style>
  </defs>
  <title>footer_document_icon_hover</title>
  <path class="cls-1" d="M11,2V6a3,3,0,0,0,3,3h4V22a1,1,0,0,1-1,1H3a1,1,0,0,1-1-1V3A1,1,0,0,1,3,2h8m1-1H3A2,2,0,0,0,1,3V22a2,2,0,0,0,2,2H17a2,2,0,0,0,2-2V8H14a2,2,0,0,1-2-2V1h0Z" transform="translate(-1 -1)"/>
  <path class="cls-1" d="M12,1V2l6,6h1c0-1.13-6-7-7-7h0Z" transform="translate(-1 -1)"/>
</svg>
