<svg xmlns="http://www.w3.org/2000/svg" width="42" height="18" viewBox="0 0 42 18">
  <defs>
    <style>
      .cls-1 {
        fill: #d4d8d8;
        fill-rule: evenodd;
      }
    </style>
  </defs>
  <path id="identity_icon" class="cls-1" d="M806,9949h10a2,2,0,0,1,2,2v14a2,2,0,0,1-2,2H806a2,2,0,0,1-2-2v-14A2,2,0,0,1,806,9949Zm5,3a3.542,3.542,0,1,1-3,3.5A3.281,3.281,0,0,1,811,9952Zm0,8c2.209,0,5,1.11,5,3v2H806v-2C806,9961.11,808.791,9960,811,9960Zm16-10h11a1,1,0,0,1,0,2H827A1,1,0,0,1,827,9950Zm-5,4h8a1,1,0,0,1,0,2h-8A1,1,0,0,1,822,9954Zm12,0h11a1,1,0,0,1,0,2H834A1,1,0,0,1,834,9954Zm-12,6h3a1,1,0,0,1,0,2h-3A1,1,0,0,1,822,9960Zm8,0h15a1,1,0,0,1,0,2H830A1,1,0,0,1,830,9960Zm-8,4h6a1,1,0,0,1,0,2h-6A1,1,0,0,1,822,9964Zm11,0h12a1,1,0,0,1,0,2H833A1,1,0,0,1,833,9964Z" transform="translate(-804 -9949)"/>
</svg>
