<?xml version="1.0" encoding="utf-8"?>
<!-- Generator: Adobe Illustrator 19.2.0, SVG Export Plug-In . SVG Version: 6.00 Build 0)  -->
<svg version="1.1" id="Layer_1" xmlns="http://www.w3.org/2000/svg" xmlns:xlink="http://www.w3.org/1999/xlink" x="0px" y="0px"
	 viewBox="0 0 50 60" style="enable-background:new 0 0 50 60;" xml:space="preserve">
<style type="text/css">
	.st0{fill:#F0F7F7;}
</style>
<g>
	<path class="st0" d="M42,24H8c-0.6,0-1,0.4-1,1v22c0,0.6,0.4,1,1,1h34c0.6,0,1-0.4,1-1V25C43,24.4,42.6,24,42,24z M34,27.5
		c1.9,0,3.5,1.6,3.5,3.5s-1.6,3.5-3.5,3.5s-3.5-1.6-3.5-3.5S32.1,27.5,34,27.5z M8.5,47C8.2,47,8,46.8,8,46.5V39l7-7l15,15H8.5z
		 M31.4,47l-7-7l3.3-3.3L38,47H31.4z"/>
	<path class="st0" d="M38,9V0H3C1.3,0,0,1.3,0,3v54c0,1.7,1.3,3,3,3h44c1.7,0,3-1.3,3-3V12h-9C39.3,12,38,10.7,38,9z M45,48
		c0,1.1-0.9,2-2,2H7c-1.1,0-2-0.9-2-2V24c0-1.1,0.9-2,2-2h36c1.1,0,2,0.9,2,2V48z M39,1v8c0,1.1,0.9,2,2,2h8L39,1z"/>
</g>
</svg>
