<?xml version="1.0" encoding="utf-8"?>
<!-- Generator: Adobe Illustrator 19.2.0, SVG Export Plug-In . SVG Version: 6.00 Build 0)  -->
<svg version="1.1" id="Layer_1" xmlns="http://www.w3.org/2000/svg" xmlns:xlink="http://www.w3.org/1999/xlink" x="0px" y="0px"
	 viewBox="0 0 50 60" style="enable-background:new 0 0 50 60;" xml:space="preserve">
<style type="text/css">
	.st0{fill:#F0F7F7;}
</style>
<g>
	<path class="st0" d="M41,11h8L39,1v8C39,10.1,39.9,11,41,11z"/>
	<path class="st0" d="M41,12c-1.7,0-3-1.3-3-3V0H3C1.3,0,0,1.3,0,3v54c0,1.7,1.3,3,3,3h44c1.7,0,3-1.3,3-3V12H41z M17,25.5h18
		c0.5,0,1,0.5,1,1s-0.5,1-1,1H17c-0.5,0-1-0.5-1-1S16.5,25.5,17,25.5z M9,29.5h30c0.5,0,1,0.5,1,1s-0.5,1-1,1H9c-0.5,0-1-0.5-1-1
		S8.5,29.5,9,29.5z M9,38.5h24c0.5,0,1,0.5,1,1s-0.5,1-1,1H9c-0.5,0-1-0.5-1-1S8.5,38.5,9,38.5z M8,36.5c0-0.5,0.5-1,1-1h27
		c0.5,0,1,0.5,1,1s-0.5,1-1,1H9C8.5,37.5,8,37,8,36.5z M37,46.5H9c-0.5,0-1-0.5-1-1s0.5-1,1-1h28c0.5,0,1,0.5,1,1S37.5,46.5,37,46.5
		z M39,43.5H9c-0.5,0-1-0.5-1-1s0.5-1,1-1h30c0.5,0,1,0.5,1,1S39.5,43.5,39,43.5z M41,34.5H9c-0.5,0-1-0.5-1-1s0.5-1,1-1h32
		c0.5,0,1,0.5,1,1S41.5,34.5,41,34.5z"/>
</g>
</svg>
